HIERARCHY
ROOT Hips
{
  OFFSET 265.287 66.7526 -254.649
  CHANNELS 6 Xposition Yposition Zposition Zrotation Xrotation Yrotation
  JOINT LeftUpLeg
  {
    OFFSET 8.64259 1.95398 -2.38835
    CHANNELS 3 Zrotation Xrotation Yrotation
    JOINT LeftLeg
    {
      OFFSET 43.7702 0 0
      CHANNELS 3 Zrotation Xrotation Yrotation
      JOINT LeftFoot
      {
        OFFSET 40.6238 0 0
        CHANNELS 3 Zrotation Xrotation Yrotation
        JOINT LeftToeBase
        {
          OFFSET 12.7242 0 0
          CHANNELS 3 Zrotation Xrotation Yrotation
          End Site
          {
            OFFSET 0 0 0
          }
        }
      }
    }
  }
  JOINT RightUpLeg
  {
    OFFSET -8.2249 1.95398 -2.59336
    CHANNELS 3 Zrotation Xrotation Yrotation
    JOINT RightLeg
    {
      OFFSET 43.5653 0 0
      CHANNELS 3 Zrotation Xrotation Yrotation
      JOINT RightFoot
      {
        OFFSET 40.6238 0 0
        CHANNELS 3 Zrotation Xrotation Yrotation
        JOINT RightToeBase
        {
          OFFSET 12.7242 0 0
          CHANNELS 3 Zrotation Xrotation Yrotation
          End Site
          {
            OFFSET 0 0 0
          }
        }
      }
    }
  }
  JOINT Spine
  {
    OFFSET 0.165834 0.87714 6.61349
    CHANNELS 3 Zrotation Xrotation Yrotation
    JOINT Spine1
    {
      OFFSET 7.38963 1.71661e-005 0
      CHANNELS 3 Zrotation Xrotation Yrotation
      JOINT Spine2
      {
        OFFSET 11.9445 1.14441e-005 0
        CHANNELS 3 Zrotation Xrotation Yrotation
        JOINT Spine3
        {
          OFFSET 14.7254 4.19617e-005 0
          CHANNELS 3 Zrotation Xrotation Yrotation
          JOINT Spine4
          {
            OFFSET 10.9679 0 0
            CHANNELS 3 Zrotation Xrotation Yrotation
            JOINT RightShoulder
            {
              OFFSET 2.46616 -1.6653 3.69651
              CHANNELS 3 Zrotation Xrotation Yrotation
              JOINT RightArm
              {
                OFFSET 13.0012 0 0
                CHANNELS 3 Zrotation Xrotation Yrotation
                JOINT RightForeArm
                {
                  OFFSET 28.7848 1.52588e-005 0
                  CHANNELS 3 Zrotation Xrotation Yrotation
                  JOINT RightHand
                  {
                    OFFSET 26.5688 1.52588e-005 0
                    CHANNELS 3 Zrotation Xrotation Yrotation
                    End Site
                    {
                      OFFSET 0 0 0
                    }
                  }
                }
              }
            }
            JOINT LeftShoulder
            {
              OFFSET 2.38034 -1.29275 -3.7523
              CHANNELS 3 Zrotation Xrotation Yrotation
              JOINT LeftArm
              {
                OFFSET 16.3182 6.10351e-005 0
                CHANNELS 3 Zrotation Xrotation Yrotation
                JOINT LeftForeArm
                {
                  OFFSET 27.0901 0 0
                  CHANNELS 3 Zrotation Xrotation Yrotation
                  JOINT LeftHand
                  {
                    OFFSET 24.5451 1.52588e-005 0
                    CHANNELS 3 Zrotation Xrotation Yrotation
                    End Site
                    {
                      OFFSET 0 0 0
                    }
                  }
                }
              }
            }
            JOINT Neck
            {
              OFFSET 5.0226 -0.0266342 0
              CHANNELS 3 Zrotation Xrotation Yrotation
              JOINT Head
              {
                OFFSET 6.69364 2.86102e-005 0
                CHANNELS 3 Zrotation Xrotation Yrotation
                End Site
                {
                  OFFSET 0 0 0
                }
              }
            }
          }
        }
      }
    }
  }
}
MOTION
Frames:	7
Frame Time:	0.0416667
-274.413 89.564 268.938 89.6425 26.0253 85.5364 -177.747 -15.1169 80.8158 -0.00221382 0.275864 1.18963 71.3239 0.399888 15.2571 32.5205 -0.702663 -5.74679 167.495 4.37515 77.3801 -24.5125 -40.5449 6.22442 62.729 -3.29928 -11.5391 52.3234 -2.80281 6.24414 2.10272 5.18648 -89.7374 16.522 4.2808 -0.19353 4.85807 4.27429 -0.382092 -17.731 4.14067 1.10425 2.28162 4.14067 1.10424 112.446 -53.1117 -66.7921 24.5222 1.33645 11.9036 -153.62 -27.5403 -134.15 13.4358 -8.01035 -64.1131 -74.9121 -44.568 101.616 -38.9451 13.9389 0.481554 9.76059 46.4361 -14.4243 7.70151 0.0882893 -2.34142 -50.2402 -6.00802 -4.52114 7.44087 -8.97588 -10.901 
-274.476 89.5993 268.952 89.5095 25.9597 85.4994 -177.876 -14.9544 80.6308 0.00252067 0.084178 1.22286 71.151 0.24208 14.9752 32.4638 -0.716882 -5.3183 167.443 4.30052 77.3197 -24.0387 -40.6927 6.22345 63.0438 -3.63466 -11.4755 51.513 -2.81762 5.25411 2.10521 5.18575 -89.7233 16.5219 4.29245 -0.166973 4.858 4.2743 -0.356084 -17.7315 4.14386 1.13309 2.28115 4.14384 1.13308 112.434 -52.9518 -66.7796 24.5599 1.02404 11.6327 -140.073 -35.9406 -127.696 36.3338 -16.7455 -52.0755 -74.8888 -44.6495 101.65 -38.8113 13.8116 0.107194 9.67653 47.0737 -14.1256 7.59433 0.0756973 -2.46538 -49.9885 -6.06386 -4.55872 7.31788 -9.00555 -10.7842 
-274.626 89.699 269.086 89.1032 25.9762 85.3308 -177.985 -14.4234 80.3356 -0.0167528 0.0318732 1.08937 70.8428 0.143456 14.8627 32.6073 -0.805033 -4.86617 167.32 4.14689 77.2154 -22.8883 -40.5517 6.16142 63.742 -4.31628 -12.2241 50.2588 -2.66756 5.59334 2.08106 5.18083 -89.6545 16.5264 4.27992 -0.0259877 4.86248 4.27436 -0.214682 -17.7259 4.0895 1.2637 2.28672 4.08951 1.2637 112.291 -53.184 -67.0358 24.4309 1.35165 11.0347 -131.801 -41.7284 -122.757 40.2477 -15.4313 -45.2186 -74.8614 -44.19 101.721 -39.0446 13.8601 -0.303691 9.67273 46.897 -14.0456 8.18551 0.116131 -2.13291 -48.7521 -6.03474 -4.9662 6.51892 -8.88968 -10.1928 
-274.846 89.8196 269.31 88.5171 26.015 85.0663 -178.064 -13.6694 79.9819 -0.000504714 -0.0841089 0.829261 70.7565 0.224032 14.914 32.3505 -0.674132 -5.33912 167.114 3.92199 77.0513 -21.2136 -40.3132 6.09693 64.9069 -5.46042 -13.2333 48.0868 -2.44479 5.8971 2.04928 5.18444 -89.5568 16.5152 4.26739 0.174201 4.85123 4.27079 -0.0141403 -17.7312 4.0174 1.45075 2.28144 4.01739 1.45074 111.988 -53.7435 -67.5837 24.0574 2.0039 10.3667 -117.093 -48.7833 -112.454 44.2315 -12.6147 -34.9943 -74.9255 -43.7912 101.639 -39.1961 13.9352 -1.05556 9.34647 46.4845 -13.5016 8.20541 0.121942 -2.07505 -46.8964 -6.02917 -5.71274 5.40852 -8.7852 -9.12382 
-275.14 90.0109 269.604 87.7321 26.0923 84.7501 -178.401 -12.6076 79.3461 -0.045562 -0.366548 0.733245 70.0755 -0.0253144 14.5596 32.9225 -0.934026 -4.64878 166.641 3.56132 76.7522 -18.5884 -39.8874 6.25135 66.2948 -6.87361 -14.4373 45.0329 -2.12962 7.10393 2.0076 5.19154 -89.4399 16.4948 4.24473 0.415051 4.83078 4.25889 0.227487 -17.7523 3.92346 1.67348 2.26036 3.92346 1.67349 111.541 -54.045 -68.2932 24.127 3.38808 9.23317 -101.467 -55.0851 -99.9718 39.0756 -8.42836 -28.092 -74.9473 -43.4306 101.624 -39.4201 13.8522 -2.02419 9.19654 46.3315 -13.0802 7.92839 0.126892 -1.95801 -44.276 -6.04985 -6.43815 3.74275 -8.60325 -8.06627 
-275.518 90.1024 269.988 86.7551 26.2077 84.4731 -178.358 -11.3795 78.969 -0.0028689 -0.296705 0.30362 69.9889 0.16097 14.7625 32.4572 -0.708538 -5.39066 166.563 3.15354 76.7774 -16.0375 -39.2305 5.78044 68.1833 -8.72692 -15.1689 41.393 -1.83447 6.70435 1.9598 5.19923 -89.32 16.4749 4.21155 0.663921 4.81073 4.23666 0.47759 -17.7702 3.81705 1.90067 2.24248 3.81703 1.90067 111.063 -54.2499 -69.0299 24.195 4.41917 8.24442 -82.1268 -58.3095 -84.15 35.2103 -4.46196 -18.7743 -74.9317 -43.1261 101.667 -39.5812 13.9637 -3.02078 9.18149 46.0379 -12.9106 7.71304 0.0856604 -2.37243 -40.9966 -6.23146 -7.13229 1.56994 -8.49114 -6.90449 
-275.963 90.0155 270.465 85.7312 26.3907 84.1627 -178.492 -10.0018 78.4226 -0.073988 -0.318686 0.0564046 69.7103 0.229911 14.9227 32.2485 -0.594537 -5.85293 166.467 3.08085 76.7603 -13.9728 -38.3703 5.3881 70.603 -11.1627 -16.1982 37.0768 -1.4883 7.17517 1.90494 5.21431 -89.1825 16.4388 4.17349 0.950204 4.77435 4.21126 0.765281 -17.8024 3.69476 2.16204 2.21022 3.69477 2.16203 110.533 -54.5509 -69.8533 24.3192 5.62604 7.17285 -63.8557 -59.6241 -68.6632 28.5659 -1.74483 -11.6317 -74.9148 -42.7545 101.717 -39.7334 14.15 -4.16957 8.95369 45.9287 -12.472 7.74063 0.0386466 -2.91214 -36.968 -6.38673 -8.0404 -1.1973 -8.30258 -5.6236 
